# 3ds Max Wavefront OBJ Exporter v0.99 - (c)2007 guruware
# File Created: 15.10.2024 17:50:42

mtllib Arco_Text.mtl

#
# object Box001
#

v  -18.7002 0.0000 3.4693
v  -18.7002 0.0000 -3.4693
v  -11.2998 0.0000 -3.4693
v  -11.2998 0.0000 3.4693
v  -18.7002 31.1229 3.4693
v  -11.2998 31.1229 3.4693
v  -11.2998 31.1229 -3.4693
v  -18.7002 31.1229 -3.4693
# 8 vertices

vn 0.0000 -1.0000 -0.0000
vn 0.0000 1.0000 -0.0000
vn 0.0000 0.0000 1.0000
vn 1.0000 0.0000 -0.0000
vn 0.0000 0.0000 -1.0000
vn -1.0000 0.0000 -0.0000
# 6 vertex normals

vt 1.0000 0.0000 0.0000
vt 1.0000 1.0000 0.0000
vt 0.0000 1.0000 0.0000
vt 0.0000 0.0000 0.0000
# 4 texture coords

o Box001
g Box001
usemtl 01___Default
s 2
f 1/1/1 2/2/1 3/3/1 
f 3/3/1 4/4/1 1/1/1 
s 4
f 5/4/2 6/1/2 7/2/2 
f 7/2/2 8/3/2 5/4/2 
s 8
f 1/4/3 4/1/3 6/2/3 
f 6/2/3 5/3/3 1/4/3 
s 16
f 4/4/4 3/1/4 7/2/4 
f 7/2/4 6/3/4 4/4/4 
s 32
f 3/4/5 2/1/5 8/2/5 
f 8/2/5 7/3/5 3/4/5 
s 64
f 2/4/6 1/1/6 5/2/6 
f 5/2/6 8/3/6 2/4/6 
# 12 faces

#
# object Box002
#

v  11.2998 0.0000 3.4693
v  11.2998 0.0000 -3.4693
v  18.7002 0.0000 -3.4693
v  18.7002 0.0000 3.4693
v  11.2998 31.1229 3.4693
v  18.7002 31.1229 3.4693
v  18.7002 31.1229 -3.4693
v  11.2998 31.1229 -3.4693
# 8 vertices

vn 0.0000 -1.0000 -0.0000
vn 0.0000 1.0000 -0.0000
vn 0.0000 0.0000 1.0000
vn 1.0000 0.0000 -0.0000
vn 0.0000 0.0000 -1.0000
vn -1.0000 0.0000 -0.0000
# 6 vertex normals

vt 1.0000 0.0000 0.0000
vt 1.0000 1.0000 0.0000
vt 0.0000 1.0000 0.0000
vt 0.0000 0.0000 0.0000
# 4 texture coords

o Box002
g Box002
usemtl 01___Default
s 2
f 9/5/7 10/6/7 11/7/7 
f 11/7/7 12/8/7 9/5/7 
s 4
f 13/8/8 14/5/8 15/6/8 
f 15/6/8 16/7/8 13/8/8 
s 8
f 9/8/9 12/5/9 14/6/9 
f 14/6/9 13/7/9 9/8/9 
s 16
f 12/8/10 11/5/10 15/6/10 
f 15/6/10 14/7/10 12/8/10 
s 32
f 11/8/11 10/5/11 16/6/11 
f 16/6/11 15/7/11 11/8/11 
s 64
f 10/8/12 9/5/12 13/6/12 
f 13/6/12 16/7/12 10/8/12 
# 12 faces

#
# object Box003
#

v  -20.4104 31.2063 5.2040
v  -20.4104 31.2063 -5.2040
v  -9.3098 31.2063 -5.2040
v  -9.3098 31.2063 5.2040
v  20.4103 31.2063 5.2040
v  9.3098 31.2063 5.2040
v  9.3098 31.2063 -5.2040
v  20.4103 31.2063 -5.2040
v  -8.0626 35.8612 5.2040
v  -17.6759 41.4115 5.2040
v  -4.6549 39.2688 5.2040
v  -10.2052 48.8822 5.2040
v  -0.0000 40.5161 5.2040
v  -0.0000 51.6166 5.2040
v  4.6549 39.2688 5.2040
v  10.2052 48.8822 5.2040
v  8.0625 35.8612 5.2040
v  17.6759 41.4115 5.2040
v  -8.0626 35.8612 -5.2040
v  -4.6549 39.2688 -5.2040
v  -0.0000 40.5161 -5.2040
v  4.6549 39.2688 -5.2040
v  8.0625 35.8612 -5.2040
v  -17.6759 41.4115 -5.2040
v  -10.2052 48.8822 -5.2040
v  -0.0000 51.6166 -5.2040
v  10.2052 48.8822 -5.2040
v  17.6759 41.4115 -5.2040
# 28 vertices

vn -0.0000 -1.0000 0.0000
vn 0.0000 0.0000 1.0000
vn 0.9659 -0.2588 0.0000
vn 0.8660 -0.5000 0.0000
vn 0.5000 -0.8660 0.0000
vn 0.0000 -1.0000 0.0000
vn -0.5000 -0.8660 0.0000
vn -0.8660 -0.5000 0.0000
vn -0.9659 -0.2588 0.0000
vn 0.0000 -0.0000 -1.0000
vn -0.9659 0.2588 -0.0000
vn -0.8660 0.5000 -0.0000
vn -0.5000 0.8660 -0.0000
vn 0.0000 1.0000 -0.0000
vn 0.5000 0.8660 -0.0000
vn 0.8660 0.5000 -0.0000
vn 0.9659 0.2588 -0.0000
# 17 vertex normals

vt 1.0000 0.0000 0.0000
vt 1.0000 1.0000 0.0000
vt 0.0000 1.0000 0.0000
vt 0.0000 0.0000 0.0000
vt 1.0000 0.1667 0.0000
vt 0.0000 0.1667 0.0000
vt 1.0000 0.3333 0.0000
vt 0.0000 0.3333 0.0000
vt 1.0000 0.5000 0.0000
vt 0.0000 0.5000 0.0000
vt 1.0000 0.6667 0.0000
vt 0.0000 0.6667 0.0000
vt 1.0000 0.8333 0.0000
vt 0.0000 0.8333 0.0000
# 14 texture coords

o Box003
g Box003
usemtl 02___Default
s 2
f 17/9/13 18/10/13 19/11/13 
f 19/11/13 20/12/13 17/9/13 
s 4
f 21/12/13 22/9/13 23/10/13 
f 23/10/13 24/11/13 21/12/13 
s 8
f 17/12/14 20/9/14 25/13/14 
f 25/13/14 26/14/14 17/12/14 
f 26/14/14 25/13/14 27/15/14 
f 27/15/14 28/16/14 26/14/14 
f 28/16/14 27/15/14 29/17/14 
f 29/17/14 30/18/14 28/16/14 
f 30/18/14 29/17/14 31/19/14 
f 31/19/14 32/20/14 30/18/14 
f 32/20/14 31/19/14 33/21/14 
f 33/21/14 34/22/14 32/20/14 
f 34/22/14 33/21/14 22/10/14 
f 22/10/14 21/11/14 34/22/14 
s 16
f 20/12/15 19/9/15 35/13/16 
f 35/13/16 25/14/16 20/12/15 
f 25/14/16 35/13/16 36/15/17 
f 36/15/17 27/16/17 25/14/16 
f 27/16/17 36/15/17 37/17/18 
f 37/17/18 29/18/13 27/16/17 
f 29/18/13 37/17/18 38/19/19 
f 38/19/19 31/20/19 29/18/13 
f 31/20/19 38/19/19 39/21/20 
f 39/21/20 33/22/20 31/20/19 
f 33/22/20 39/21/20 23/10/21 
f 23/10/21 22/11/21 33/22/20 
s 32
f 19/12/22 18/9/22 40/13/22 
f 40/13/22 35/14/22 19/12/22 
f 35/14/22 40/13/22 41/15/22 
f 41/15/22 36/16/22 35/14/22 
f 36/16/22 41/15/22 42/17/22 
f 42/17/22 37/18/22 36/16/22 
f 37/18/22 42/17/22 43/19/22 
f 43/19/22 38/20/22 37/18/22 
f 38/20/22 43/19/22 44/21/22 
f 44/21/22 39/22/22 38/20/22 
f 39/22/22 44/21/22 24/10/22 
f 24/10/22 23/11/22 39/22/22 
s 64
f 18/12/23 17/9/23 26/13/24 
f 26/13/24 40/14/24 18/12/23 
f 40/14/24 26/13/24 28/15/25 
f 28/15/25 41/16/25 40/14/24 
f 41/16/25 28/15/25 30/17/26 
f 30/17/26 42/18/26 41/16/25 
f 42/18/26 30/17/26 32/19/27 
f 32/19/27 43/20/27 42/18/26 
f 43/20/27 32/19/27 34/21/28 
f 34/21/28 44/22/28 43/20/27 
f 44/22/28 34/21/28 21/10/29 
f 21/10/29 24/11/29 44/22/28 
# 52 faces

