# 3ds Max Wavefront OBJ Exporter v0.99 - (c)2007 guruware
# File Created: 09.11.2024 16:44:29

mtllib Canario.mtl

#
# object vsn_mesh_0_mesh0Mesh
#

v  0.0000 0.2500 0.1972
v  0.0930 0.1858 0.1263
v  0.0790 0.2613 0.1670
v  0.0000 0.1549 0.1492
v  0.0537 0.3288 0.2113
v  -0.0930 0.1858 0.1263
v  0.0000 0.3046 0.2264
v  -0.0790 0.2613 0.1670
v  -0.0537 0.3288 0.2113
v  0.1445 0.2443 0.0791
v  0.1123 0.1204 0.0429
v  0.1491 0.1928 0.0173
v  0.1013 0.3307 0.1640
v  0.0553 0.3909 0.1911
v  0.0000 0.3747 0.2270
v  -0.1445 0.2443 0.0791
v  -0.1123 0.1204 0.0429
v  -0.1491 0.1928 0.0173
v  -0.0553 0.3909 0.1911
v  -0.1013 0.3307 0.1640
v  0.1408 0.1930 -0.0774
v  0.0000 0.0758 0.0544
v  0.1103 0.0985 -0.0488
v  0.0821 0.4137 0.1209
v  0.0000 0.4133 0.1953
v  0.1109 0.3415 -0.0602
v  0.1090 0.3909 0.0266
v  -0.1109 0.3415 -0.0602
v  -0.1408 0.1930 -0.0774
v  -0.0821 0.4137 0.1209
v  -0.1090 0.3909 0.0266
v  0.0000 0.0593 -0.0488
v  0.0846 0.1845 -0.1699
v  0.0000 0.1238 -0.1730
v  -0.1103 0.0985 -0.0488
v  0.0000 0.4431 0.1127
v  0.0000 0.4281 0.0117
v  0.0915 0.2823 -0.1213
v  0.0000 0.3644 -0.0835
v  -0.0915 0.2823 -0.1213
v  -0.0846 0.1845 -0.1699
v  0.0000 0.2028 -0.2081
v  0.0000 0.2984 -0.1442
v  0.0436 0.1039 -0.0102
v  0.0055 0.1182 -0.0455
v  0.0317 0.0466 -0.0412
v  0.0436 0.1325 -0.0808
v  0.0239 0.0716 -0.0895
v  0.0064 0.0502 -0.0691
v  0.0429 0.0051 0.0422
v  0.0592 -0.0035 0.0715
v  0.0559 0.0249 0.0507
v  0.0656 0.0051 0.0386
v  0.0336 0.0262 -0.0529
v  0.0463 0.0063 -0.0397
v  0.0256 0.0063 -0.0407
v  0.0289 -0.0007 -0.0823
v  0.0785 0.0022 0.0311
v  0.1029 -0.0066 0.0464
v  0.0915 0.0155 0.0317
v  0.0941 0.0022 0.0190
v  0.0408 0.0232 -0.0159
v  0.0475 0.0068 -0.0211
v  0.0341 0.0068 -0.0107
v  0.0290 0.0025 0.0367
v  0.0483 0.0069 -0.0199
v  0.0396 0.0242 -0.0219
v  0.0309 0.0069 -0.0239
v  0.0180 0.0189 0.0436
v  0.0094 0.0025 0.0340
v  0.0154 -0.0066 0.0623
v  -0.0055 0.1182 -0.0455
v  -0.0239 0.0716 -0.0895
v  -0.0436 0.1325 -0.0808
v  -0.0064 0.0502 -0.0691
v  -0.0429 0.0051 0.0422
v  -0.0559 0.0249 0.0507
v  -0.0592 -0.0035 0.0715
v  -0.0336 0.0262 -0.0529
v  -0.0656 0.0051 0.0386
v  -0.0256 0.0063 -0.0407
v  -0.0463 0.0063 -0.0397
v  -0.0289 -0.0007 -0.0823
v  -0.0785 0.0022 0.0311
v  -0.0915 0.0155 0.0317
v  -0.1029 -0.0066 0.0464
v  -0.0408 0.0232 -0.0159
v  -0.0941 0.0022 0.0190
v  -0.0341 0.0068 -0.0107
v  -0.0475 0.0068 -0.0211
v  -0.0290 0.0025 0.0367
v  -0.0396 0.0242 -0.0219
v  -0.0483 0.0069 -0.0199
v  -0.0180 0.0189 0.0436
v  -0.0309 0.0069 -0.0239
v  -0.0154 -0.0066 0.0623
v  -0.0094 0.0025 0.0340
v  0.0869 0.3515 -0.0087
v  0.0962 0.3377 0.0693
v  0.2209 0.3759 0.0856
v  0.0693 0.3169 0.0012
v  0.2037 0.3876 -0.0131
v  0.1149 0.2700 -0.0636
v  0.1976 0.2856 -0.0957
v  0.4153 0.3919 0.0302
v  0.4242 0.3897 -0.0724
v  0.4247 0.3143 -0.1505
v  0.5225 0.3271 -0.1405
v  -0.0869 0.3515 -0.0087
v  -0.2209 0.3759 0.0856
v  -0.0962 0.3377 0.0693
v  -0.2037 0.3876 -0.0131
v  -0.0693 0.3169 0.0012
v  -0.1976 0.2856 -0.0957
v  -0.1149 0.2700 -0.0636
v  -0.4153 0.3919 0.0302
v  -0.4242 0.3897 -0.0724
v  -0.4247 0.3143 -0.1505
v  -0.5225 0.3271 -0.1405
v  0.0317 0.0103 -0.0121
v  0.0368 0.0603 -0.0789
v  0.0494 0.0103 -0.0149
v  0.0189 0.0603 -0.0789
v  0.0429 0.0198 0.0015
v  0.0279 0.0698 -0.0637
v  -0.0317 0.0103 -0.0121
v  -0.0494 0.0103 -0.0149
v  -0.0368 0.0603 -0.0789
v  -0.0429 0.0198 0.0015
v  -0.0189 0.0603 -0.0789
v  -0.0279 0.0698 -0.0637
v  0.1138 0.0977 -0.2961
v  0.0000 0.1003 -0.3129
v  -0.1138 0.0977 -0.2961
v  0.0000 0.3263 0.2926
v  0.0475 0.0502 -0.0749
v  0.0817 0.1182 -0.0455
v  -0.0475 0.0502 -0.0749
v  -0.0317 0.0466 -0.0412
v  -0.0436 0.1039 -0.0102
v  -0.0817 0.1182 -0.0455
# 141 vertices

vn 0.0000 -0.4432 0.8964
vn 0.6036 -0.4452 0.6614
vn 0.5879 -0.3013 0.7507
vn 0.0000 -0.6236 0.7817
vn 0.5781 -0.0709 0.8129
vn -0.6036 -0.4452 0.6614
vn 0.0000 -0.4712 0.8820
vn -0.5879 -0.3013 0.7507
vn -0.5781 -0.0709 0.8129
vn 0.9598 -0.0422 0.2775
vn 0.6873 -0.6414 0.3409
vn 0.9813 -0.1785 0.0720
vn 0.8511 0.1173 0.5117
vn 0.5575 0.5421 0.6287
vn 0.0000 0.4862 0.8738
vn -0.9598 -0.0422 0.2775
vn -0.6873 -0.6414 0.3409
vn -0.9813 -0.1785 0.0720
vn -0.5575 0.5421 0.6287
vn -0.8511 0.1173 0.5117
vn 0.9495 -0.0853 -0.3020
vn 0.0000 -0.9089 0.4171
vn 0.6813 -0.7152 -0.1560
vn 0.6523 0.7332 0.1921
vn 0.0000 0.8169 0.5768
vn 0.7027 0.5525 -0.4483
vn 0.7358 0.6568 -0.1647
vn -0.7027 0.5525 -0.4483
vn -0.9495 -0.0853 -0.3020
vn -0.6523 0.7332 0.1921
vn -0.7358 0.6568 -0.1647
vn 0.0000 -0.9887 -0.1498
vn 0.6903 -0.0942 -0.7174
vn 0.0000 -0.8183 -0.5749
vn -0.6813 -0.7152 -0.1560
vn 0.0000 0.9967 0.0806
vn 0.0000 0.9335 -0.3586
vn 0.5894 0.4334 -0.6817
vn 0.0000 0.7679 -0.6406
vn -0.5894 0.4334 -0.6817
vn -0.6903 -0.0942 -0.7174
vn 0.0000 0.4839 -0.8751
vn 0.0000 0.6178 -0.7863
vn 0.1057 -0.5538 0.8259
vn -0.9988 0.0444 0.0190
vn 0.0446 -0.7845 0.6185
vn 0.0957 0.1632 -0.9820
vn -0.2473 -0.0898 -0.9648
vn -0.7689 -0.6087 -0.1958
vn -0.8597 -0.4636 0.2145
vn 0.1376 -0.4749 0.8692
vn 0.0838 0.8930 0.4422
vn 0.8928 -0.4296 -0.1354
vn -0.0672 0.9234 -0.3778
vn 0.8401 -0.5054 -0.1972
vn -0.8715 -0.4698 0.1405
vn -0.1444 -0.3484 -0.9261
vn -0.6197 -0.4637 0.6332
vn 0.5395 -0.4817 0.6906
vn 0.3171 0.8778 0.3591
vn 0.7029 -0.3800 -0.6013
vn -0.0325 0.9936 0.1084
vn 0.5226 -0.5292 -0.6685
vn -0.6352 -0.4543 0.6246
vn 0.8348 -0.4960 0.2389
vn 0.8473 -0.4670 0.2529
vn 0.0468 0.9963 0.0720
vn -0.7881 -0.5170 -0.3340
vn -0.1046 0.8789 0.4654
vn -0.8959 -0.4043 -0.1841
vn -0.1198 -0.5085 0.8527
vn 0.9988 0.0444 0.0190
vn 0.2473 -0.0898 -0.9648
vn -0.0957 0.1632 -0.9820
vn 0.7689 -0.6087 -0.1958
vn 0.8597 -0.4636 0.2145
vn -0.0838 0.8930 0.4422
vn -0.1376 -0.4749 0.8692
vn 0.0672 0.9234 -0.3778
vn -0.8928 -0.4296 -0.1354
vn 0.8715 -0.4698 0.1405
vn -0.8401 -0.5054 -0.1972
vn 0.1444 -0.3484 -0.9261
vn 0.6197 -0.4637 0.6332
vn -0.3171 0.8778 0.3591
vn -0.5395 -0.4817 0.6906
vn 0.0325 0.9936 0.1084
vn -0.7029 -0.3800 -0.6013
vn 0.6352 -0.4543 0.6246
vn -0.5226 -0.5292 -0.6685
vn -0.8348 -0.4960 0.2389
vn -0.0468 0.9963 0.0720
vn -0.8473 -0.4670 0.2529
vn 0.1046 0.8789 0.4654
vn 0.7881 -0.5170 -0.3340
vn 0.1198 -0.5085 0.8527
vn 0.8959 -0.4043 -0.1841
vn -0.6320 0.7047 -0.3225
vn -0.4546 0.8663 0.2069
vn -0.1659 0.9746 0.1504
vn -0.8831 0.3657 -0.2938
vn -0.2116 0.9254 -0.3144
vn -0.4623 0.3810 -0.8007
vn -0.2606 0.5930 -0.7619
vn 0.1070 0.9941 0.0178
vn 0.1448 0.9296 -0.3390
vn -0.1405 0.7123 -0.6877
vn 0.1703 0.8360 -0.5217
vn 0.6320 0.7047 -0.3225
vn 0.1659 0.9746 0.1504
vn 0.4546 0.8663 0.2069
vn 0.2116 0.9254 -0.3144
vn 0.8831 0.3657 -0.2938
vn 0.2606 0.5930 -0.7619
vn 0.4623 0.3810 -0.8007
vn -0.1070 0.9941 0.0178
vn -0.1448 0.9296 -0.3390
vn 0.1405 0.7123 -0.6877
vn -0.1703 0.8360 -0.5217
vn -0.7074 -0.6784 0.1984
vn 0.7254 -0.4813 -0.4921
vn 0.7654 -0.6414 -0.0526
vn -0.7473 -0.5925 -0.3008
vn 0.1769 0.1275 0.9759
vn -0.1110 0.7798 0.6161
vn 0.7074 -0.6784 0.1984
vn -0.7654 -0.6414 -0.0526
vn -0.7254 -0.4813 -0.4921
vn -0.1769 0.1275 0.9759
vn 0.7473 -0.5925 -0.3008
vn 0.1110 0.7798 0.6161
vn 0.0000 0.8097 -0.5868
vn 0.3826 0.8003 -0.4617
vn 0.2195 0.7547 -0.6182
vn 0.0000 0.7150 -0.6991
vn -0.2195 0.7547 -0.6182
vn -0.3826 0.8003 -0.4617
vn 0.0000 -0.9018 0.4321
vn -0.1005 -0.8305 0.5479
vn 0.3043 -0.8888 0.3428
vn 0.0000 -0.9863 0.1652
vn -0.3043 -0.8888 0.3428
vn 0.1005 -0.8305 0.5479
vn 0.2388 -0.8737 0.4238
vn 0.1173 -0.8943 0.4317
vn 0.2244 -0.8552 0.4672
vn 0.2035 -0.8865 0.4155
vn 0.1758 -0.8977 0.4041
vn 0.1414 -0.9070 0.3968
vn -0.3277 -0.8597 0.3918
vn 0.0791 -0.9145 0.3967
vn -0.2388 -0.8737 0.4238
vn -0.2244 -0.8552 0.4672
vn -0.1173 -0.8943 0.4317
vn -0.2035 -0.8865 0.4155
vn -0.1758 -0.8977 0.4041
vn -0.1414 -0.9070 0.3968
vn 0.3277 -0.8597 0.3918
vn -0.0791 -0.9145 0.3967
vn 0.0000 0.8050 0.5933
vn 0.6527 0.6098 0.4495
vn -0.6527 0.6098 0.4495
vn 0.0000 -0.9502 0.3115
vn 0.4577 -0.8448 0.2770
vn -0.4577 -0.8448 0.2770
vn 0.5833 -0.6957 -0.4192
vn 0.9072 -0.3926 -0.1510
vn -0.5833 -0.6957 -0.4192
vn -0.0446 -0.7845 0.6185
vn -0.1057 -0.5538 0.8259
vn -0.9072 -0.3926 -0.1510
# 171 vertex normals

vt 0.1314 0.5763 0.0000
vt 0.3843 0.5624 0.0000
vt 0.2172 0.6411 0.0000
vt 0.3777 0.4832 0.0000
vt 0.0965 0.6632 0.0000
vt 0.0789 0.6246 0.0000
vt 0.3580 0.7266 0.0000
vt 0.5577 0.5791 0.0000
vt 0.5438 0.6841 0.0000
vt 0.1803 0.7237 0.0000
vt 0.0794 0.7560 0.0000
vt 0.0350 0.6995 0.0000
vt 0.7308 0.7150 0.0000
vt 0.5979 0.4818 0.0000
vt 0.7477 0.5729 0.0000
vt 0.1369 0.8397 0.0000
vt 0.0348 0.7722 0.0000
vt 0.5210 0.8537 0.0000
vt 0.3153 0.8736 0.0000
vt 0.7868 0.4985 0.0000
vt 0.8847 0.6958 0.0000
vt 0.9424 0.5290 0.0000
vt 0.0574 0.8417 0.0000
vt 0.2296 0.9715 0.0000
vt 0.7143 0.8626 0.0000
vt 0.5330 0.9924 0.0000
vt 0.9376 0.9644 0.0000
vt 0.7436 0.9782 0.0000
vt 0.0769 0.5166 0.0000
vt 0.0481 0.5093 0.0000
vt 0.0645 0.5725 0.0000
vt 0.0193 0.5019 0.0000
vt 0.0217 0.5721 0.0000
vt 0.0407 0.5880 0.0000
vt 0.0592 0.3881 0.0000
vt 0.0131 0.4062 0.0000
vt 0.0447 0.4048 0.0000
vt 0.0614 0.4201 0.0000
vt 0.2586 0.3955 0.0000
vt 0.2370 0.4111 0.0000
vt 0.2350 0.3819 0.0000
vt 0.3034 0.3935 0.0000
vt 0.0708 0.4393 0.0000
vt 0.0445 0.4709 0.0000
vt 0.0681 0.4572 0.0000
vt 0.0868 0.4627 0.0000
vt 0.1957 0.3992 0.0000
vt 0.2026 0.4092 0.0000
vt 0.1888 0.3891 0.0000
vt 0.0695 0.3696 0.0000
vt 0.2007 0.4102 0.0000
vt 0.2049 0.3985 0.0000
vt 0.2092 0.3867 0.0000
vt 0.0607 0.3533 0.0000
vt 0.0764 0.3428 0.0000
vt 0.0331 0.3468 0.0000
vt 0.0131 0.4061 0.0000
vt 0.2586 0.3954 0.0000
vt 0.2350 0.3818 0.0000
vt 0.2370 0.4110 0.0000
vt 0.0708 0.4392 0.0000
vt 0.0681 0.4571 0.0000
vt 0.0445 0.4708 0.0000
vt 0.1957 0.3991 0.0000
vt 0.1888 0.3890 0.0000
vt 0.2049 0.3984 0.0000
vt 0.2092 0.3866 0.0000
vt 0.9266 0.0964 0.0000
vt 0.9528 0.1831 0.0000
vt 0.8346 0.2425 0.0000
vt 0.9749 0.0808 0.0000
vt 0.8095 0.1157 0.0000
vt 0.8770 0.0256 0.0000
vt 0.7802 0.0122 0.0000
vt 0.6156 0.2357 0.0000
vt 0.5627 0.1124 0.0000
vt 0.5287 0.0165 0.0000
vt 0.4349 0.0595 0.0000
vt 0.1839 0.4478 0.0000
vt 0.3292 0.4366 0.0000
vt 0.1847 0.4452 0.0000
vt 0.1895 0.4640 0.0000
vt 0.3344 0.4542 0.0000
vt 0.7054 0.4337 0.0000
vt 0.6474 0.2648 0.0000
vt 0.9471 0.2687 0.0000
vt 0.9460 0.4807 0.0000
vt 0.6219 0.4476 0.0000
vt 0.6087 0.2530 0.0000
vt 0.3690 0.2827 0.0000
vt 0.3749 0.4400 0.0000
vt 0.1928 0.2539 0.0000
vt 0.0126 0.0726 0.0000
vt 0.0982 0.2417 0.0000
vt 0.1221 0.0055 0.0000
vt 0.3341 0.0079 0.0000
vt 0.4353 0.2435 0.0000
vt 0.0220 0.1725 0.0000
vt 0.5225 0.1947 0.0000
vt 0.1303 0.9427 0.0000
vt 0.0216 0.9157 0.0000
vt 0.0229 0.9900 0.0000
vt 0.0518 0.8854 0.0000
vt 0.0364 0.5889 0.0000
# 104 texture coords

o vsn_mesh_0_mesh0Mesh
g vsn_mesh_0_mesh0Mesh
usemtl m_body_mat
s off
f 1/1/1 2/2/2 3/3/3 
f 1/1/1 4/4/4 2/2/2 
f 1/1/1 3/3/3 5/5/5 
f 1/1/1 6/2/6 4/4/4 
f 1/1/1 5/5/5 7/6/7 
f 1/1/1 8/3/8 6/2/6 
f 1/1/1 7/6/7 9/5/9 
f 1/1/1 9/5/9 8/3/8 
f 2/2/2 10/7/10 3/3/3 
f 2/2/2 4/4/4 11/8/11 
f 2/2/2 11/8/11 12/9/12 
f 2/2/2 12/9/12 10/7/10 
f 5/5/5 3/3/3 13/10/13 
f 3/3/3 10/7/10 13/10/13 
f 5/5/5 13/10/13 14/11/14 
f 5/5/5 14/11/14 15/12/15 
f 6/2/6 8/3/8 16/7/16 
f 6/2/6 17/8/17 4/4/4 
f 6/2/6 16/7/16 18/9/18 
f 6/2/6 18/9/18 17/8/17 
f 9/5/9 15/12/15 19/11/19 
f 9/5/9 19/11/19 20/10/20 
f 8/3/8 20/10/20 16/7/16 
f 9/5/9 20/10/20 8/3/8 
f 11/8/11 21/13/21 12/9/12 
f 4/4/4 17/8/17 22/14/22 
f 11/8/11 4/4/4 22/14/22 
f 11/8/11 22/14/22 23/15/23 
f 11/8/11 23/15/23 21/13/21 
f 14/11/14 13/10/13 24/16/24 
f 14/11/14 25/17/25 15/12/15 
f 14/11/14 24/16/24 25/17/25 
f 15/12/15 25/17/25 19/11/19 
f 12/9/12 21/13/21 26/18/26 
f 10/7/10 12/9/12 26/18/26 
f 13/10/13 27/19/27 24/16/24 
f 10/7/10 26/18/26 27/19/27 
f 10/7/10 27/19/27 13/10/13 
f 18/9/18 16/7/16 28/18/28 
f 18/9/18 28/18/28 29/13/29 
f 18/9/18 29/13/29 17/8/17 
f 19/11/19 25/17/25 30/16/30 
f 20/10/20 19/11/19 30/16/30 
f 16/7/16 31/19/31 28/18/28 
f 20/10/20 30/16/30 31/19/31 
f 20/10/20 31/19/31 16/7/16 
f 23/15/23 22/14/22 32/20/32 
f 23/15/23 33/21/33 21/13/21 
f 23/15/23 32/20/32 34/22/34 
f 23/15/23 34/22/34 33/21/33 
f 17/8/17 29/13/29 35/15/35 
f 32/20/32 35/15/35 34/22/34 
f 32/20/32 22/14/22 35/15/35 
f 17/8/17 35/15/35 22/14/22 
f 25/17/25 24/16/24 36/23/36 
f 36/23/36 24/16/24 37/24/37 
f 36/23/36 37/24/37 30/16/30 
f 25/17/25 36/23/36 30/16/30 
f 26/18/26 38/25/38 39/26/39 
f 21/13/21 33/21/33 38/25/38 
f 21/13/21 38/25/38 26/18/26 
f 28/18/28 39/26/39 40/25/40 
f 28/18/28 40/25/40 29/13/29 
f 29/13/29 40/25/40 41/21/41 
f 34/22/34 35/15/35 41/21/41 
f 29/13/29 41/21/41 35/15/35 
f 41/21/41 40/25/40 42/27/42 
f 33/21/33 42/27/42 38/25/38 
f 39/26/39 38/25/38 43/28/43 
f 43/28/43 42/27/42 40/25/40 
f 43/28/43 38/25/38 42/27/42 
f 39/26/39 43/28/43 40/25/40 
f 44/29/44 45/30/45 46/31/46 
f 45/30/45 47/32/47 48/33/48 
f 45/30/45 48/33/48 49/34/49 
f 45/30/45 49/34/49 46/31/46 
f 50/35/50 51/36/51 52/37/52 
f 50/35/50 53/38/53 51/36/51 
f 52/37/52 51/36/51 53/38/53 
f 50/35/50 52/37/52 54/39/54 
f 52/37/52 53/38/53 55/40/55 
f 52/37/52 55/40/55 54/39/54 
f 50/35/50 55/40/55 53/38/53 
f 50/35/50 56/41/56 55/40/55 
f 50/35/50 54/39/54 56/41/56 
f 56/41/56 57/42/57 55/40/55 
f 55/40/55 57/42/57 54/39/54 
f 56/41/56 54/39/54 57/42/57 
f 58/43/58 59/44/59 60/45/60 
f 61/46/61 60/45/60 59/44/59 
f 58/43/58 61/46/61 59/44/59 
f 58/43/58 60/45/60 62/47/62 
f 61/46/61 62/47/62 60/45/60 
f 58/43/58 63/48/63 61/46/61 
f 61/46/61 63/48/63 62/47/62 
f 58/43/58 62/47/62 64/49/64 
f 58/43/58 64/49/64 63/48/63 
f 65/50/65 66/51/66 67/52/67 
f 65/50/65 68/53/68 66/51/66 
f 65/50/65 67/52/67 69/54/69 
f 70/55/70 69/54/69 67/52/67 
f 70/55/70 67/52/67 68/53/68 
f 65/50/65 70/55/70 68/53/68 
f 65/50/65 71/56/71 70/55/70 
f 65/50/65 69/54/69 71/56/71 
f 70/55/70 71/56/71 69/54/69 
f 72/30/72 73/33/73 74/32/74 
f 72/30/72 75/34/75 73/33/73 
f 76/35/76 77/37/77 78/57/78 
f 76/35/76 79/58/79 77/37/77 
f 77/37/77 80/38/80 78/57/78 
f 76/35/76 78/57/78 80/38/80 
f 76/35/76 81/59/81 79/58/79 
f 76/35/76 82/60/82 81/59/81 
f 77/37/77 82/60/82 80/38/80 
f 77/37/77 79/58/79 82/60/82 
f 76/35/76 80/38/80 82/60/82 
f 81/59/81 82/60/82 83/42/83 
f 81/59/81 83/42/83 79/58/79 
f 83/42/83 82/60/82 79/58/79 
f 84/61/84 85/62/85 86/63/86 
f 84/61/84 87/64/87 85/62/85 
f 84/61/84 86/63/86 88/46/88 
f 88/46/88 86/63/86 85/62/85 
f 88/46/88 85/62/85 87/64/87 
f 84/61/84 89/65/89 87/64/87 
f 84/61/84 90/48/90 89/65/89 
f 88/46/88 87/64/87 90/48/90 
f 84/61/84 88/46/88 90/48/90 
f 91/50/91 92/66/92 93/51/93 
f 91/50/91 94/54/94 92/66/92 
f 91/50/91 93/51/93 95/67/95 
f 91/50/91 96/56/96 94/54/94 
f 91/50/91 97/55/97 96/56/96 
f 97/55/97 92/66/92 94/54/94 
f 97/55/97 95/67/95 92/66/92 
f 97/55/97 94/54/94 96/56/96 
f 91/50/91 95/67/95 97/55/97 
f 98/68/98 99/69/99 100/70/100 
f 98/68/98 101/71/101 99/69/99 
f 98/68/98 100/70/100 102/72/102 
f 98/68/98 103/73/103 101/71/101 
f 98/68/98 102/72/102 104/74/104 
f 98/68/98 104/74/104 103/73/103 
f 100/70/100 105/75/105 102/72/102 
f 102/72/102 105/75/105 106/76/106 
f 104/74/104 102/72/102 106/76/106 
f 104/74/104 106/76/106 107/77/107 
f 108/78/108 106/76/106 105/75/105 
f 107/77/107 106/76/106 108/78/108 
f 109/68/109 110/70/110 111/69/111 
f 109/68/109 112/72/112 110/70/110 
f 109/68/109 111/69/111 113/71/113 
f 109/68/109 114/74/114 112/72/112 
f 109/68/109 115/73/115 114/74/114 
f 109/68/109 113/71/113 115/73/115 
f 110/70/110 112/72/112 116/75/116 
f 114/74/114 117/76/117 112/72/112 
f 112/72/112 117/76/117 116/75/116 
f 114/74/114 118/77/118 117/76/117 
f 117/76/117 119/78/119 116/75/116 
f 118/77/118 119/78/119 117/76/117 
f 120/79/120 121/80/121 122/81/122 
f 120/79/120 123/80/123 121/80/121 
f 120/79/120 122/81/122 124/82/124 
f 120/79/120 124/82/124 125/83/125 
f 125/83/125 122/81/122 121/80/121 
f 120/79/120 125/83/125 123/80/123 
f 125/83/125 124/82/124 122/81/122 
f 126/79/126 127/81/127 128/80/128 
f 126/79/126 129/82/129 127/81/127 
f 126/79/126 128/80/128 130/80/130 
f 126/79/126 130/80/130 131/83/131 
f 131/83/131 128/80/128 127/81/127 
f 131/83/131 127/81/127 129/82/129 
f 126/79/126 131/83/131 129/82/129 
f 42/84/132 33/85/133 132/86/134 
f 42/84/132 132/86/134 133/87/135 
f 42/84/132 133/87/135 134/86/136 
f 42/84/132 134/86/136 41/85/137 
f 133/88/138 132/89/139 33/90/140 
f 133/88/138 33/90/140 34/91/141 
f 133/88/138 34/91/141 41/90/142 
f 133/88/138 41/90/142 134/89/143 
f 104/92/144 99/93/145 103/94/146 
f 104/92/144 100/95/147 99/93/145 
f 104/92/144 105/96/148 100/95/147 
f 104/92/144 107/97/149 105/96/148 
f 103/94/146 99/93/145 101/98/150 
f 107/97/149 108/99/151 105/96/148 
f 114/92/152 115/94/153 111/93/154 
f 114/92/152 111/93/154 110/95/155 
f 114/92/152 110/95/155 116/96/156 
f 114/92/152 116/96/156 118/97/157 
f 115/94/153 113/98/158 111/93/154 
f 116/96/156 119/99/159 118/97/157 
f 135/100/160 5/101/161 15/102/160 
f 135/100/160 15/102/160 9/101/162 
f 7/103/163 5/101/164 135/100/163 
f 7/103/163 135/100/163 9/101/165 
f 27/19/27 37/24/37 24/16/24 
f 31/19/31 30/16/30 37/24/37 
f 27/19/27 26/18/26 39/26/39 
f 27/19/27 39/26/39 37/24/37 
f 31/19/31 37/24/37 39/26/39 
f 31/19/31 39/26/39 28/18/28 
f 136/104/166 44/29/44 46/31/46 
f 136/104/166 137/30/167 44/29/44 
f 136/104/166 46/31/46 49/34/49 
f 136/104/166 47/32/47 137/30/167 
f 136/104/166 48/33/48 47/32/47 
f 136/104/166 49/34/49 48/33/48 
f 138/104/168 139/31/169 140/29/170 
f 138/104/168 75/34/75 139/31/169 
f 138/104/168 140/29/170 141/30/171 
f 138/104/168 73/33/73 75/34/75 
f 138/104/168 74/32/74 73/33/73 
f 138/104/168 141/30/171 74/32/74 
f 139/31/169 75/34/75 72/30/72 
f 139/31/169 72/30/72 140/29/170 
# 220 faces

