# 3ds Max Wavefront OBJ Exporter v0.99 - (c)2007 guruware
# File Created: 19.10.2024 23:28:53

mtllib Helice.mtl

#
# object LargeDisc1_mesh
#

v  -6.3388 3.6400 0.0350
v  -6.3388 3.6400 6.4350
v  0.0612 3.6400 0.0350
v  0.0612 3.6400 6.4350
v  6.4612 3.6400 0.0350
v  6.4612 3.6400 6.4350
v  -6.3388 3.6400 -6.3650
v  0.0612 3.6400 -6.3650
v  6.4612 3.6400 -6.3650
# 9 vertices

vn 0.0000 1.0000 0.0000
# 1 vertex normals

vt 0.9866 1.0127 0.0000
vt 0.9866 1.9946 0.0000
vt 0.0054 1.0127 0.0000
vt 0.0054 1.9946 0.0000
# 4 texture coords

o LargeDisc1_mesh
g LargeDisc1_mesh
usemtl Animal_Control_Chopper_Material_00060a
s 1
f 1/1/1 2/2/1 3/3/1 
f 2/2/1 4/4/1 3/3/1 
f 3/3/1 4/1/1 5/4/1 
f 4/1/1 6/2/1 5/4/1 
f 7/2/1 1/4/1 8/1/1 
f 1/4/1 3/3/1 8/1/1 
f 8/4/1 3/3/1 9/2/1 
f 3/3/1 5/1/1 9/2/1 
# 8 faces

#
# object LargeDisc2_mesh
#

v  -5.4814 3.5500 3.2350
v  -2.2814 3.5500 8.7775
v  0.0612 3.5500 0.0350
v  3.2612 3.5500 5.5775
v  5.6037 3.5500 -3.1650
v  8.8037 3.5500 2.3776
v  -8.6814 3.5500 -2.3076
v  -3.1388 3.5500 -5.5076
v  2.4037 3.5500 -8.7076
# 9 vertices

vn 0.0000 1.0000 0.0000
# 1 vertex normals

vt 0.9866 1.0127 0.0000
vt 0.9866 1.9946 0.0000
vt 0.0054 1.0127 0.0000
vt 0.0054 1.9946 0.0000
# 4 texture coords

o LargeDisc2_mesh
g LargeDisc2_mesh
usemtl Animal_Control_Chopper_Material_000617
s 1
f 10/5/2 11/6/2 12/7/2 
f 11/6/2 13/8/2 12/7/2 
f 12/7/2 13/5/2 14/8/2 
f 13/5/2 15/6/2 14/8/2 
f 16/6/2 10/8/2 17/5/2 
f 10/8/2 12/7/2 17/5/2 
f 17/8/2 12/7/2 18/6/2 
f 12/7/2 14/5/2 18/6/2 
# 8 faces

